<svg width="154" height="36" viewBox="0 0 154 36" xmlns="http://www.w3.org/2000/svg" xmlns:xlink="http://www.w3.org/1999/xlink"><title>logo-white</title><defs><path id="a" d="M.054 35.65h128.81V.585H.055v35.063z"/></defs><g fill="none" fill-rule="evenodd"><path fill="#FFF" d="M11.824 20.79L5.228 1.341 0 2.094l9.157 24.641h4.181L23.326 1.88l-4.471-.537z"/><g transform="translate(25.182 .04)"><mask id="b" fill="#fff"><use xlink:href="#a"/></mask><path d="M.414 26.696h4.76V8.788H.414v17.908zM5.497 3.272a2.64 2.64 0 0 1-.792 1.916 2.585 2.585 0 0 1-1.911.805 2.707 2.707 0 0 1-1.929-.769c-.54-.513-.81-1.129-.81-1.844 0-.836.251-1.51.756-2.024.504-.514 1.178-.77 2.018-.77.77 0 1.407.256 1.912.77.504.513.756 1.152.756 1.916zm15.754 18.481c0 1.575-.637 2.865-1.91 3.868-1.275 1.003-2.898 1.504-4.867 1.504-2.213 0-4.207-.691-5.985-2.077l1.55-2.508c1.418 1.194 2.704 1.792 3.858 1.792.769 0 1.387-.197 1.856-.59.469-.395.704-.926.704-1.596a2.32 2.32 0 0 0-.578-1.54c-.385-.453-1.225-1.145-2.523-2.077-1.298-.931-2.176-1.647-2.633-2.15C9.906 15.45 9.5 14.424 9.5 13.3c0-1.456.577-2.645 1.73-3.563 1.154-.919 2.63-1.38 4.435-1.38 1.874 0 3.593.491 5.154 1.47l-1.398 2.256c-.957-.668-1.96-1.004-3.011-1.004-.646 0-1.179.168-1.597.502-.418.335-.627.752-.627 1.253 0 .717.824 1.684 2.475 2.902 1.841 1.361 3.067 2.43 3.677 3.206.609.775.914 1.713.914 2.81m17.918 3.654c-1.875 1.146-3.955 1.72-6.238 1.72-2.74 0-5.01-.866-6.813-2.598-1.803-1.73-2.704-3.968-2.704-6.715 0-2.721.943-4.979 2.83-6.769 1.886-1.79 4.284-2.686 7.192-2.686 2.043 0 3.87.49 5.481 1.468l-1.402 2.507c-1.174-.549-2.324-.823-3.45-.823-1.676 0-3.023.554-4.042 1.665-1.017 1.11-1.526 2.585-1.526 4.423 0 1.91.515 3.45 1.545 4.62 1.029 1.17 2.383 1.756 4.06 1.756 1.15 0 2.407-.37 3.773-1.111l1.294 2.543zm15.142-7.772c0-2.1-.398-3.736-1.191-4.907-.794-1.17-1.898-1.755-3.316-1.755-1.347 0-2.423.604-3.228 1.809-.804 1.206-1.207 2.824-1.207 4.853 0 2.149.397 3.832 1.19 5.05.793 1.218 1.898 1.827 3.316 1.827 1.394 0 2.482-.61 3.264-1.828.78-1.217 1.172-2.9 1.172-5.049m4.938-.036c0 2.77-.878 5.05-2.632 6.84-1.754 1.791-4.001 2.687-6.742 2.687-2.764 0-5.028-.882-6.795-2.65-1.767-1.767-2.65-4.047-2.65-6.84 0-2.723.888-4.95 2.668-6.68 1.778-1.731 4.062-2.598 6.85-2.598 2.668 0 4.885.885 6.651 2.652 1.766 1.766 2.65 3.963 2.65 6.589m19.144-8.417l-7.752 17.515h-3.28L60.15 9.325l4.723-.86 4.687 12.536 4.975-12.536z" fill="#FFF" mask="url(#b)"/><path d="M91.84 15.807c0-.214-.012-.5-.036-.86-.194-2.697-1.36-4.047-3.494-4.047-2.524 0-3.86 1.637-4.005 4.907h7.535zm4.255 1.791c0 .048-.156.143-.468.287-.314.143-.47.25-.47.322H84.305c.024 1.815.546 3.247 1.568 4.297 1.023 1.052 2.35 1.577 3.985 1.577 1.538 0 3.1-.477 4.685-1.433l1.335 2.471c-2.38 1.338-4.723 2.006-7.03 2.006-2.644 0-4.83-.811-6.561-2.436-1.996-1.862-2.993-4.272-2.993-7.234 0-2.722.889-4.943 2.668-6.662 1.682-1.623 3.822-2.436 6.417-2.436 3.269 0 5.503 1.314 6.706 3.94.65 1.41.985 3.177 1.01 5.301z" fill="#FFF" opacity=".9" mask="url(#b)"/><path d="M111.524 10.006l-1.768 3.402c-1.057-.502-1.814-.752-2.27-.752-1.346 0-2.283.716-2.812 2.149-.312.86-.468 2.28-.468 4.262v7.629h-4.76V8.788h4.76v3.151l.683-1.146c.962-1.623 2.056-2.435 3.283-2.435 1.032 0 2.15.55 3.352 1.648" fill="#FFF" mask="url(#b)"/><path d="M128.865 9.218l-8.76 19.733c-1.13 2.555-2.2 4.25-3.209 5.087-1.297 1.074-3.173 1.611-5.624 1.611h-1.118v-3.188h.937c1.105 0 1.971-.149 2.596-.447.625-.299 1.208-.86 1.749-1.683.54-.824 1.303-2.43 2.289-4.818L110.73 9.361l4.687-.896 4.614 12.608 5.083-12.608 3.75.753zM59.002 23.13a8.808 8.808 0 0 1-2.73 2.832l6.446 6.405a1.647 1.647 0 0 0 2.314-.002l.477-.472a1.625 1.625 0 0 0 0-2.3l-6.507-6.462z" fill="#FFF" mask="url(#b)"/></g></g></svg>