<svg width="26" height="26" viewBox="0 0 26 26" xmlns="http://www.w3.org/2000/svg"><title>icon-linkedin</title><g fill="none" fill-rule="evenodd"><path fill="#000" opacity=".01" d="M0 0h26v26H0z"/><path d="M21.423 3H4.486c-.412 0-.762.141-1.052.423-.29.282-.434.62-.434 1.017v17.143c0 .396.145.731.434 1.006.29.274.633.411 1.029.411h16.96c.396 0 .739-.137 1.028-.411.29-.275.435-.61.435-1.006V4.44c0-.396-.145-.735-.435-1.017A1.452 1.452 0 0 0 21.4 3h.023zM9.034 19.754H6.04v-9.028h2.994v9.028zM7.526 9.491h-.023c-.488 0-.884-.148-1.189-.445a1.5 1.5 0 0 1-.457-1.12c0-.45.156-.823.469-1.12.312-.297.72-.446 1.223-.446.502 0 .906.149 1.211.446a1.5 1.5 0 0 1 .457 1.12 1.5 1.5 0 0 1-.457 1.12c-.305.297-.716.445-1.234.445zm12.32 10.263H16.85V14.91c0-.625-.114-1.113-.342-1.463-.26-.381-.648-.572-1.166-.572-.396 0-.732.115-1.006.343a1.82 1.82 0 0 0-.548.754c-.061.168-.092.412-.092.732v5.051h-2.994V15.55c.015-2.865.015-4.473 0-4.823h2.994v1.28c.274-.427.572-.755.892-.983.502-.335 1.104-.503 1.805-.503 1.036 0 1.86.328 2.469.983.655.716.983 1.737.983 3.063v5.188z" fill="#FFF"/></g></svg>