<svg width="25" height="20" viewBox="0 0 25 20" xmlns="http://www.w3.org/2000/svg"><title>icon-wb</title><g fill="#FFF" fill-rule="evenodd"><path d="M18.402 9.553c-.345-.103-.582-.173-.4-.626.39-.985.43-1.834.007-2.44-.796-1.135-2.971-1.074-5.466-.03 0-.001-.783.343-.582-.278.383-1.234.325-2.267-.272-2.863-1.352-1.354-4.95.051-8.037 3.136C1.342 8.762 0 11.212 0 13.33c0 4.05 5.195 6.514 10.277 6.514 6.662 0 11.094-3.871 11.094-6.944 0-1.857-1.564-2.91-2.969-3.347m-8.111 8.839c-4.056.4-7.556-1.433-7.82-4.096-.263-2.662 2.812-5.145 6.867-5.545 4.055-.402 7.556 1.432 7.82 4.093.262 2.663-2.812 5.147-6.867 5.548zM22.826 2.14a6.48 6.48 0 0 1 1.357 6.343v.003a.938.938 0 0 1-1.786-.578 4.61 4.61 0 0 0-5.352-5.931.938.938 0 0 1-.392-1.835 6.483 6.483 0 0 1 6.173 1.998zm-2.47 2.23c.784.868.994 2.05.658 3.09a.808.808 0 0 1-1.536-.497 1.543 1.543 0 0 0-1.793-1.986.806.806 0 1 1-.336-1.579 3.157 3.157 0 0 1 3.006.972z"/><path d="M10.696 10.8c1.997.516 3.016 2.4 2.2 4.23-.828 1.871-3.208 2.87-5.228 2.218-1.95-.63-2.775-2.554-1.921-4.288.838-1.701 3.02-2.663 4.95-2.16zm-.182 2.77c.136-.244.048-.519-.197-.609-.24-.095-.542.02-.684.258-.137.238-.061.51.18.609.246.101.56-.015.701-.258zm-1.292 1.658c.386-.632.183-1.354-.452-1.625-.629-.263-1.44.008-1.828.616-.392.61-.208 1.337.415 1.62.633.29 1.473.015 1.865-.61z"/></g></svg>